<svg width="660" height="300" viewBox="0 0 660 300" fill="none" xmlns="http://www.w3.org/2000/svg">
<path d="M628.056 195.497C626.274 195.497 624.493 195.052 622.86 194.161L605.492 184.067C604.453 183.473 603.86 182.434 603.86 181.246C603.86 180.059 604.453 179.02 605.492 178.426L622.86 168.332C625.977 166.551 629.985 166.551 633.251 168.332L650.619 178.426C651.658 179.02 652.252 180.059 652.252 181.246C652.252 182.434 651.658 183.473 650.619 184.067L633.251 194.161C631.618 195.052 629.837 195.497 628.056 195.497ZM624.345 191.786C626.72 193.122 629.54 193.122 631.915 191.786L649.283 181.692C649.431 181.543 649.58 181.395 649.58 181.246C649.58 181.098 649.58 180.95 649.283 180.801L631.915 170.707C629.54 169.371 626.72 169.371 624.345 170.707L606.977 180.801C606.828 180.95 606.68 181.098 606.68 181.246C606.68 181.395 606.68 181.543 606.977 181.692L624.345 191.786Z" fill="url(#paint0_linear_402_233)"/>
<path d="M351.658 300.001C348.689 300.001 345.869 299.259 343.197 297.775L313.211 280.407C311.727 279.516 310.985 278.18 310.985 276.399C310.985 274.766 311.876 273.282 313.211 272.391L343.197 255.023C348.392 252.055 354.775 252.055 359.971 255.023L389.956 272.391C391.44 273.282 392.182 274.618 392.182 276.399C392.182 278.18 391.292 279.516 389.956 280.407L359.971 297.775C357.595 299.259 354.627 300.001 351.658 300.001ZM351.658 255.766C349.283 255.766 346.759 256.359 344.681 257.695L314.696 275.063C313.954 275.508 313.805 276.251 313.805 276.547C313.805 276.844 313.954 277.587 314.696 278.032L344.681 295.4C348.986 297.923 354.33 297.923 358.635 295.4L388.62 278.032C389.362 277.587 389.51 276.844 389.51 276.547C389.51 276.251 389.362 275.508 388.62 275.063L358.635 257.695C356.556 256.359 354.181 255.766 351.658 255.766Z" fill="url(#paint1_linear_402_233)"/>
<path opacity="0.3" d="M344.088 296.585L314.102 279.217C312.024 278.03 312.024 274.913 314.102 273.725L344.088 256.357C348.838 253.537 354.775 253.537 359.525 256.357L389.511 273.725C391.589 274.913 391.589 278.03 389.511 279.217L359.377 296.585C354.627 299.257 348.838 299.257 344.088 296.585Z" fill="url(#paint2_linear_402_233)"/>
<path d="M69.9159 208.858C65.0173 208.858 60.1187 207.522 55.6655 204.998L3.56258 174.864C1.33596 173.529 0 171.153 0 168.63C0 166.106 1.33596 163.731 3.56258 162.395L55.6655 132.262C64.4235 127.215 75.4082 127.215 84.1662 132.262L136.269 162.395C138.496 163.731 139.832 166.106 139.832 168.63C139.832 171.302 138.496 173.529 136.269 174.864L84.1662 204.998C79.8614 207.522 74.8144 208.858 69.9159 208.858ZM69.9159 131.965C65.6111 131.965 61.3063 133.152 57.4468 135.379L5.34389 165.513C4.15636 166.255 3.41414 167.442 3.41414 168.778C3.41414 170.114 4.15636 171.45 5.34389 172.044L57.4468 202.178C65.1657 206.631 74.8144 206.631 82.5334 202.178L134.636 172.044C135.824 171.302 136.566 170.114 136.566 168.778C136.566 167.442 135.824 166.106 134.636 165.513L82.5334 135.379C78.5255 133.004 74.2207 131.965 69.9159 131.965Z" fill="url(#paint3_linear_402_233)"/>
<path d="M164.77 83.572C160.762 83.572 156.754 82.5329 153.191 80.4547L110.737 55.9619C108.956 54.9228 107.768 52.9931 107.768 50.9149C107.768 48.8367 108.807 46.907 110.737 45.8679L153.191 21.3751C160.316 17.2187 169.223 17.2187 176.348 21.3751L218.802 45.8679C220.584 46.907 221.771 48.8367 221.771 50.9149C221.771 52.9931 220.732 54.9228 218.802 55.9619L176.348 80.4547C172.785 82.5329 168.777 83.572 164.77 83.572ZM154.527 78.0797C160.762 81.7907 168.629 81.7907 175.012 78.0797L217.466 53.5868C218.505 52.9931 218.951 51.954 218.951 50.9149C218.951 49.7274 218.357 48.8367 217.466 48.243L175.012 23.7501C168.777 20.1875 160.91 20.0391 154.527 23.7501L112.073 48.243C111.034 48.8367 110.588 49.8758 110.588 50.9149C110.588 52.1024 111.182 52.9931 112.073 53.5868L154.527 78.0797Z" fill="url(#paint4_linear_402_233)"/>
<path opacity="0.3" d="M153.934 79.2672L111.479 54.7744C108.51 52.9931 108.51 48.6883 111.479 47.0554L153.934 22.5626C160.613 18.7031 168.926 18.7031 175.754 22.5626L218.209 47.0554C221.177 48.8367 221.177 53.1415 218.209 54.7744L175.754 79.2672C168.926 83.1267 160.613 83.1267 153.934 79.2672Z" fill="url(#paint5_linear_402_233)"/>
<path d="M579.663 144.137C574.171 144.137 568.53 142.653 563.632 139.832L503.81 105.394C501.435 104.058 499.95 101.534 499.95 98.7141C499.95 95.8937 501.435 93.3702 503.81 92.0342L563.632 57.5958C573.577 51.8066 585.898 51.8066 595.695 57.5958L655.517 92.0342C657.892 93.3702 659.376 95.8937 659.376 98.7141C659.376 101.534 657.892 104.058 655.517 105.394L595.695 139.832C590.797 142.653 585.156 144.137 579.663 144.137ZM564.968 137.457C574.023 142.653 585.304 142.653 594.359 137.457L654.181 103.019C655.665 102.128 656.704 100.495 656.704 98.7141C656.704 96.9328 655.814 95.2999 654.181 94.4093L594.359 59.9709C585.304 54.7754 574.023 54.7754 564.968 59.9709L505.146 94.4093C503.661 95.2999 502.622 96.9328 502.622 98.7141C502.622 100.495 503.513 102.128 505.146 103.019L564.968 137.457Z" fill="url(#paint6_linear_402_233)"/>
<path d="M329.688 89.9552L367.838 112.073C370.064 113.409 373.627 113.409 375.854 112.073C378.08 110.737 378.08 108.807 375.854 107.471L337.704 85.3535C335.477 84.0176 331.915 84.0176 329.688 85.3535C327.462 86.5411 327.462 88.6193 329.688 89.9552Z" fill="#84DDF3"/>
<path opacity="0.6" d="M312.914 95.002C310.687 96.338 310.687 98.2677 312.914 99.6037L371.697 133.597C373.924 134.933 377.486 134.933 379.713 133.597C381.939 132.261 381.939 130.331 379.713 128.995L320.93 95.002C318.703 93.666 315.141 93.666 312.914 95.002Z" fill="#84DDF3"/>
<path d="M296.14 109.252L307.867 116.08C310.094 117.416 313.656 117.416 315.883 116.08C318.11 114.744 318.11 112.815 315.883 111.479L304.156 104.65C301.929 103.314 298.367 103.314 296.14 104.65C294.062 105.838 294.062 107.916 296.14 109.252Z" fill="#84DDF3"/>
<path d="M279.515 118.901L312.766 138.049C314.992 139.385 318.555 139.385 320.782 138.049C323.008 136.713 323.008 134.784 320.782 133.448L287.531 114.299C285.304 112.963 281.742 112.963 279.515 114.299C277.288 115.635 277.288 117.565 279.515 118.901Z" fill="#84DDF3"/>
<path d="M363.83 143.69C366.056 142.354 366.056 140.424 363.83 139.088L330.579 119.939C328.352 118.604 324.79 118.604 322.563 119.939C320.336 121.275 320.336 123.205 322.563 124.541L355.814 143.69C358.041 144.878 361.603 144.878 363.83 143.69Z" fill="#84DDF3"/>
<path opacity="0.6" d="M389.807 154.08L387.877 152.893L378.377 147.4C376.15 146.064 372.588 146.064 370.361 147.4C368.134 148.736 368.134 150.666 370.361 152.002L379.861 157.494L381.791 158.682L391.291 164.174C393.518 165.51 397.08 165.51 399.307 164.174C401.534 162.838 401.534 160.909 399.307 159.573L389.807 154.08Z" fill="#84DDF3"/>
<path d="M567.64 2.52346C569.57 1.33593 572.835 1.33593 574.765 2.52346L578.328 4.60164C580.257 5.78917 580.257 7.57047 578.328 8.758C576.398 9.94553 573.132 9.94553 571.203 8.758L567.64 6.67981C565.71 5.49228 565.71 3.71099 567.64 2.52346Z" fill="#84DDF3"/>
<path d="M534.537 0.890648C536.467 -0.296883 539.733 -0.296883 541.663 0.890648L563.038 13.2113C564.968 14.3988 564.968 16.1801 563.038 17.3676C561.108 18.5552 557.843 18.5552 555.913 17.3676L534.537 5.04701C532.608 3.85948 532.608 2.07818 534.537 0.890648Z" fill="#84DDF3"/>
<path d="M468.481 50.4688C470.41 49.2812 473.676 49.2812 475.606 50.4688L487.184 57.1486C489.114 58.3362 489.114 60.1175 487.184 61.305C485.255 62.4925 481.989 62.4925 480.059 61.305L468.481 54.6251C466.551 53.4376 466.551 51.6563 468.481 50.4688Z" fill="#84DDF3"/>
<path opacity="0.4" d="M485.106 42.6016C487.036 41.4141 490.302 41.4141 492.232 42.6016L502.326 48.3908C504.255 49.5783 504.255 51.3596 502.326 52.5472C500.396 53.7347 497.13 53.7347 495.2 52.5472L485.106 46.7579C483.177 45.422 483.177 43.6407 485.106 42.6016Z" fill="#84DDF3"/>
<path opacity="0.4" d="M464.176 12.9141C466.106 11.7266 469.372 11.7266 471.301 12.9141L517.467 39.6335C519.396 40.8211 519.396 42.6024 517.467 43.7899C515.537 44.9774 512.271 44.9774 510.342 43.7899L464.176 17.0704C462.247 15.8829 462.247 13.9532 464.176 12.9141Z" fill="#84DDF3"/>
<path d="M508.709 21.0781C510.639 19.8906 513.904 19.8906 515.834 21.0781L532.756 30.8753C534.686 32.0628 534.686 33.8441 532.756 35.0316C530.827 36.2192 527.561 36.2192 525.631 35.0316L508.709 25.2345C506.779 24.047 506.779 22.2657 508.709 21.0781Z" fill="#84DDF3"/>
<path d="M530.678 16.1797C532.608 14.9922 535.873 14.9922 537.803 16.1797L547.897 21.9689C549.827 23.1564 549.827 24.9377 547.897 26.1253C545.967 27.3128 542.702 27.3128 540.772 26.1253L530.678 20.336C528.6 19.1485 528.6 17.3672 530.678 16.1797Z" fill="#84DDF3"/>
<path d="M476.497 55.0703C478.427 53.8828 481.692 53.8828 483.622 55.0703L487.185 57.1485C489.114 58.336 489.114 60.1173 487.185 61.3049C485.255 62.4924 481.989 62.4924 480.059 61.3049L476.497 59.2267C474.567 58.0392 474.567 56.2579 476.497 55.0703Z" fill="#84DDF3"/>
<path opacity="0.4" d="M418.605 39.1875C420.535 38 423.8 38 425.73 39.1875L471.895 65.907C473.825 67.0945 473.825 68.8758 471.895 70.0633C469.966 71.2508 466.7 71.2508 464.77 70.0633L418.605 43.3439C416.675 42.1563 416.675 40.2266 418.605 39.1875Z" fill="#84DDF3"/>
<path d="M414.745 54.4766C416.675 53.2891 419.941 53.2891 421.87 54.4766L456.754 74.6646C458.684 75.8521 458.684 77.6334 456.754 78.821C454.824 80.0085 451.559 80.0085 449.629 78.821L414.745 58.6329C412.815 57.4454 412.815 55.5157 414.745 54.4766Z" fill="#84DDF3"/>
<path d="M480.801 122.91C480.208 121.277 479.317 119.496 478.575 117.863C477.981 123.652 475.606 129.442 472.785 135.231C473.231 138.942 473.231 142.801 472.637 146.512L465.957 148.888L447.699 166.849L423.354 179.318L395.299 189.115L362.493 194.904H334.438L301.336 188.818L263.186 179.318L232.756 158.091L220.88 147.552C220.435 145.176 220.287 142.95 220.287 140.575C217.318 134.489 215.388 127.66 213.458 120.832C213.013 121.723 212.716 122.613 212.419 123.356L209.302 117.863V141.614C209.896 161.505 223.255 181.099 249.53 196.24C303.265 227.265 390.252 227.265 443.988 196.24C471.004 180.654 484.364 160.169 484.215 139.833V117.863L480.801 122.91Z" fill="url(#paint7_radial_402_233)"/>
<path d="M257.248 88.6223C306.679 60.1216 386.689 60.1216 436.12 88.6223C458.535 101.537 470.856 118.162 472.785 135.233C475.606 129.444 477.832 123.654 478.575 117.865C477.239 115.193 475.606 112.521 473.676 109.849L477.684 109.553L458.09 75.2626L400.643 47.6525L348.837 41.2695L304.601 46.7619L276.546 52.1058L253.834 62.6451L230.232 79.8643L218.505 102.873L217.021 113.264C215.536 115.639 214.2 118.162 213.161 120.686C215.091 127.662 217.021 134.342 219.99 140.428C219.99 121.873 232.31 103.021 257.248 88.6223Z" fill="url(#paint8_radial_402_233)"/>
<path opacity="0.5" d="M346.61 199.656C416.459 199.656 473.082 166.958 473.082 126.623C473.082 86.2879 416.459 53.5898 346.61 53.5898C276.762 53.5898 220.138 86.2879 220.138 126.623C220.138 166.958 276.762 199.656 346.61 199.656Z" fill="url(#paint9_radial_402_233)"/>
<path d="M443.839 61.901C390.104 30.8768 303.117 30.8768 249.381 61.901C195.645 92.9252 195.645 143.247 249.381 174.123C303.117 204.998 390.104 205.147 443.839 174.123C497.575 143.247 497.575 92.9252 443.839 61.901ZM436.12 169.669C386.689 198.17 306.68 198.17 257.249 169.669C207.818 141.169 207.818 94.855 257.249 66.3542C306.68 37.8535 386.689 37.8535 436.12 66.3542C485.551 94.855 485.551 141.169 436.12 169.669Z" fill="url(#paint10_radial_402_233)"/>
<path opacity="0.3" d="M257.249 79.567C235.428 92.1845 223.256 108.216 220.732 124.693C223.256 141.17 235.428 157.202 257.249 169.819C306.68 198.32 386.69 198.32 436.121 169.819C457.941 157.202 470.114 141.17 472.637 124.693C470.114 108.216 457.941 92.1845 436.121 79.567C386.69 51.0662 306.68 51.0662 257.249 79.567Z" fill="url(#paint11_radial_402_233)"/>
<path d="M609.797 298.665C608.313 298.665 606.828 298.368 605.641 297.477L434.191 198.467C430.183 196.092 428.699 190.897 431.074 186.889C433.449 182.881 438.644 181.396 442.652 183.771L614.102 282.782C618.11 285.157 619.594 290.352 617.219 294.36C615.586 297.032 612.766 298.665 609.797 298.665Z" fill="url(#paint12_radial_402_233)"/>
<path opacity="0.6" d="M442.652 183.771C438.644 181.396 433.449 182.881 431.074 186.889C428.699 190.897 430.183 196.092 434.191 198.467L446.512 205.592C446.512 205.592 442.058 194.162 455.27 191.045L442.652 183.771Z" fill="#05344D"/>
<path d="M187.481 173.824C189.411 172.637 192.528 172.637 194.606 173.824L240.623 200.395C242.553 201.583 242.553 203.364 240.623 204.403C238.693 205.591 235.576 205.591 233.498 204.403L187.481 177.832C185.552 176.793 185.552 174.863 187.481 173.824Z" fill="#84DDF3"/>
<path d="M121.721 223.105C123.651 221.918 126.768 221.918 128.847 223.105L165.066 244.036C166.996 245.223 166.996 247.005 165.066 248.044C163.137 249.231 160.019 249.231 157.941 248.044L121.721 227.113C119.792 226.074 119.792 224.293 121.721 223.105Z" fill="#84DDF3"/>
<path opacity="0.5" d="M162.988 229.488C164.918 228.301 168.035 228.301 170.113 229.488L180.207 235.278C182.137 236.465 182.137 238.246 180.207 239.285C178.278 240.473 175.16 240.473 173.082 239.285L162.988 233.496C161.058 232.457 161.058 230.676 162.988 229.488Z" fill="#84DDF3"/>
<path d="M166.847 214.348C168.777 213.16 171.894 213.16 173.973 214.348L195.348 226.668C197.278 227.856 197.278 229.637 195.348 230.676C193.418 231.864 190.301 231.864 188.223 230.676L166.847 218.356C164.918 217.316 164.918 215.387 166.847 214.348Z" fill="#84DDF3"/>
<path d="M186.59 208.262C188.52 207.074 191.637 207.074 193.715 208.262L210.489 217.91C212.419 219.098 212.419 220.879 210.489 221.918C208.559 223.106 205.442 223.106 203.364 221.918L186.59 212.27C184.512 211.082 184.512 209.301 186.59 208.262Z" fill="#84DDF3"/>
<path opacity="0.5" d="M183.621 189.113C185.551 187.926 188.668 187.926 190.747 189.113L225.482 209.301C227.412 210.489 227.412 212.27 225.482 213.309C223.552 214.497 220.435 214.497 218.357 213.309L183.621 193.121C181.692 191.934 181.692 190.152 183.621 189.113Z" fill="#84DDF3"/>
<path d="M129.738 227.71C131.668 226.523 159.575 240.921 161.504 241.961L164.918 244.039C166.848 245.226 166.848 247.008 164.918 248.047C162.989 249.234 159.871 249.234 157.793 248.047L154.379 245.968C152.598 245.078 127.808 228.898 129.738 227.71Z" fill="#84DDF3"/>
<path d="M121.425 240.477C123.355 239.289 126.472 239.289 128.55 240.477L149.926 252.797C151.855 253.985 151.855 255.766 149.926 256.805C147.996 257.993 144.879 257.993 142.8 256.805L121.425 244.484C119.495 243.445 119.495 241.664 121.425 240.477Z" fill="#84DDF3"/>
<path d="M117.565 255.766C119.495 254.578 122.612 254.578 124.691 255.766L134.785 261.555C136.714 262.742 136.714 264.524 134.785 265.563C132.855 266.75 129.738 266.75 127.659 265.563L117.565 259.774C115.636 258.734 115.636 256.953 117.565 255.766Z" fill="#84DDF3"/>
<path d="M579.218 78.3771L610.242 96.3385C612.023 97.3776 614.992 97.3776 616.773 96.3385C618.555 95.2994 618.555 93.6665 616.773 92.6274L585.749 74.666C583.968 73.6269 580.999 73.6269 579.218 74.666C577.436 75.7051 577.436 77.338 579.218 78.3771Z" fill="#84DDF3"/>
<path opacity="0.6" d="M565.71 82.5332C563.929 83.5723 563.929 85.2052 565.71 86.2443L592.133 101.534C593.914 102.573 596.883 102.573 598.664 101.534C600.445 100.495 600.445 98.8618 598.664 97.8227L572.241 82.5332C570.46 81.4941 567.491 81.4941 565.71 82.5332Z" fill="#84DDF3"/>
<path d="M552.201 94.1114L561.702 99.6038C563.483 100.643 566.452 100.643 568.233 99.6038C570.014 98.5647 570.014 96.9318 568.233 95.8927L558.733 90.4004C556.952 89.3613 553.983 89.3613 552.201 90.4004C550.42 91.4395 550.42 93.0724 552.201 94.1114Z" fill="#84DDF3"/>
<path d="M538.545 101.979L565.561 117.565C567.343 118.604 570.311 118.604 572.093 117.565C573.874 116.526 573.874 114.893 572.093 113.854L545.076 98.2676C543.295 97.2285 540.326 97.2285 538.545 98.2676C536.764 99.3067 536.764 100.94 538.545 101.979Z" fill="#84DDF3"/>
<path d="M597.476 116.526C599.257 115.487 599.257 113.854 597.476 112.815L579.96 102.721C578.179 101.682 575.21 101.682 573.429 102.721C571.647 103.76 571.647 105.393 573.429 106.432L590.945 116.526C592.874 117.565 595.695 117.565 597.476 116.526Z" fill="#84DDF3"/>
<path d="M59.5249 159.131L90.5492 177.092C92.3305 178.131 95.2993 178.131 97.0806 177.092C98.8619 176.053 98.8619 174.42 97.0806 173.381L66.0564 155.42C64.2751 154.381 61.3062 154.381 59.5249 155.42C57.7436 156.459 57.7436 158.092 59.5249 159.131Z" fill="#84DDF3"/>
<path opacity="0.6" d="M45.8684 163.139C44.0871 164.178 44.0871 165.811 45.8684 166.85L72.291 182.139C74.0723 183.178 77.0411 183.178 78.8224 182.139C80.6037 181.1 80.6037 179.467 78.8224 178.428L52.3999 163.139C50.6186 162.1 47.6497 162.1 45.8684 163.139Z" fill="#84DDF3"/>
<defs>
<linearGradient id="paint0_linear_402_233" x1="603.86" y1="181.246" x2="637.573" y2="203.492" gradientUnits="userSpaceOnUse">
<stop stop-color="#0096D7"/>
<stop offset="1" stop-color="#22BDFF"/>
</linearGradient>
<linearGradient id="paint1_linear_402_233" x1="310.985" y1="276.399" x2="367.104" y2="313.914" gradientUnits="userSpaceOnUse">
<stop stop-color="#0096D7"/>
<stop offset="1" stop-color="#22BDFF"/>
</linearGradient>
<linearGradient id="paint2_linear_402_233" x1="312.544" y1="276.416" x2="365.834" y2="313.087" gradientUnits="userSpaceOnUse">
<stop stop-color="#0096D7"/>
<stop offset="1" stop-color="#22BDFF"/>
</linearGradient>
<linearGradient id="paint3_linear_402_233" x1="1.32448e-06" y1="168.667" x2="95.9692" y2="233.547" gradientUnits="userSpaceOnUse">
<stop stop-color="#0096D7"/>
<stop offset="1" stop-color="#22BDFF"/>
</linearGradient>
<linearGradient id="paint4_linear_402_233" x1="107.768" y1="50.9149" x2="185.846" y2="103.877" gradientUnits="userSpaceOnUse">
<stop stop-color="#0096D7"/>
<stop offset="1" stop-color="#22BDFF"/>
</linearGradient>
<linearGradient id="paint5_linear_402_233" x1="109.253" y1="50.9149" x2="184.476" y2="102.924" gradientUnits="userSpaceOnUse">
<stop stop-color="#0096D7"/>
<stop offset="1" stop-color="#22BDFF"/>
</linearGradient>
<linearGradient id="paint6_linear_402_233" x1="499.95" y1="98.6955" x2="608.793" y2="172.895" gradientUnits="userSpaceOnUse">
<stop stop-color="#0096D7"/>
<stop offset="1" stop-color="#22BDFF"/>
</linearGradient>
<radialGradient id="paint7_radial_402_233" cx="0" cy="0" r="1" gradientUnits="userSpaceOnUse" gradientTransform="translate(206.628 134.358) scale(285.215 285.214)">
<stop offset="0.00396825" stop-color="#028DF1"/>
<stop offset="0.00406825" stop-color="#02A8EF"/>
<stop offset="0.1263" stop-color="#0373C4"/>
<stop offset="0.2487" stop-color="#03799E"/>
<stop offset="0.3765" stop-color="#034480"/>
<stop offset="0.5099" stop-color="#045068"/>
<stop offset="0.6513" stop-color="#043E57"/>
<stop offset="0.840229" stop-color="#04334D"/>
<stop offset="1" stop-color="#04354A"/>
</radialGradient>
<radialGradient id="paint8_radial_402_233" cx="0" cy="0" r="1" gradientUnits="userSpaceOnUse" gradientTransform="translate(442.795 156.388) scale(275.703 275.702)">
<stop offset="0.00396825" stop-color="#02B8F1"/>
<stop offset="0.00816801" stop-color="#02C4EF"/>
<stop offset="0.1263" stop-color="#0396C4"/>
<stop offset="0.2487" stop-color="#035D9E"/>
<stop offset="0.3765" stop-color="#035A80"/>
<stop offset="0.5099" stop-color="#044468"/>
<stop offset="0.6513" stop-color="#043457"/>
<stop offset="0.8062" stop-color="#042A4D"/>
<stop offset="1" stop-color="#042D4A"/>
</radialGradient>
<radialGradient id="paint9_radial_402_233" cx="0" cy="0" r="1" gradientUnits="userSpaceOnUse" gradientTransform="translate(248.068 20.4714) scale(298.686 298.686)">
<stop stop-color="#65B6E3"/>
<stop offset="0.4742" stop-color="#2FA5FB"/>
<stop offset="0.5875" stop-color="#1C9DFB"/>
<stop offset="0.7262" stop-color="#0785FA"/>
<stop offset="1" stop-color="#1981BB"/>
</radialGradient>
<radialGradient id="paint10_radial_402_233" cx="0" cy="0" r="1" gradientUnits="userSpaceOnUse" gradientTransform="translate(239.47 2.63312) scale(324.734 324.734)">
<stop stop-color="#65C5E3"/>
<stop offset="0.4742" stop-color="#2F99FB"/>
<stop offset="0.5875" stop-color="#1C90FB"/>
<stop offset="0.7262" stop-color="#0794FA"/>
<stop offset="1" stop-color="#199EBB"/>
</radialGradient>
<radialGradient id="paint11_radial_402_233" cx="0" cy="0" r="1" gradientUnits="userSpaceOnUse" gradientTransform="translate(248.479 28.0505) scale(287.75 287.75)">
<stop stop-color="#65BDE3"/>
<stop offset="0.4742" stop-color="#2FCAFB"/>
<stop offset="0.5875" stop-color="#1CD3FB"/>
<stop offset="0.7262" stop-color="#07A3FA"/>
<stop offset="1" stop-color="#19A8BB"/>
</radialGradient>
<radialGradient id="paint12_radial_402_233" cx="0" cy="0" r="1" gradientUnits="userSpaceOnUse" gradientTransform="translate(620.658 296.03) scale(265.434 265.434)">
<stop stop-color="#65AEE3"/>
<stop offset="0.4742" stop-color="#2F99FB"/>
<stop offset="0.5875" stop-color="#1C90FB"/>
<stop offset="0.7262" stop-color="#0794FA"/>
<stop offset="1" stop-color="#1981BB"/>
</radialGradient>
</defs>
</svg>
