<svg width="148" height="78" viewBox="0 0 148 78" fill="none" xmlns="http://www.w3.org/2000/svg">
<path d="M68.6919 33.461L65.0278 37.5399V49.5H48.9888V10.6123L65.0278 1.25049V18.6664L80.9285 1.10645H98.6959L79.3384 22.3996L99.6637 49.5H80.7902L68.6919 33.461Z" fill="white"/>
<path d="M128.527 23.9894H142.699V44.4529C139.842 46.4348 136.523 47.9557 132.744 49.0158C128.965 50.0758 125.255 50.6058 121.614 50.6058C116.452 50.6058 111.82 49.5458 107.718 47.4257C103.616 45.2595 100.39 42.2637 98.039 38.4383C95.7345 34.5668 94.5823 30.1884 94.5823 25.3029C94.5823 20.4175 95.7345 16.062 98.039 12.2367C100.39 8.36517 103.639 5.36938 107.787 3.24928C111.981 1.08309 116.705 0 121.959 0C126.706 0 130.947 0.806558 134.68 2.41968C138.459 3.98671 141.593 6.29116 144.082 9.33304L133.643 18.5278C130.601 14.979 126.983 13.2045 122.789 13.2045C119.194 13.2045 116.336 14.2876 114.216 16.4538C112.096 18.62 111.036 21.5697 111.036 25.3029C111.036 28.944 112.073 31.8706 114.147 34.0829C116.267 36.2952 119.079 37.4013 122.581 37.4013C124.655 37.4013 126.637 37.0095 128.527 36.226V23.9894Z" fill="white"/>
<path d="M26.3243 24.2945L42.8876 14.9326V49.4994H26.3243V24.2945Z" fill="white"/>
<path d="M4 37.9771L20.5633 28.6152V49.4994H4V37.9771Z" fill="white"/>
<path d="M14.8625 77.9996C12.944 77.9996 11.2157 77.6021 9.67748 76.8071C8.13926 75.9948 6.92942 74.8713 6.04796 73.4368C5.18379 71.985 4.75171 70.3431 4.75171 68.5111C4.75171 66.679 5.18379 65.0457 6.04796 63.6112C6.92942 62.1594 8.13926 61.036 9.67748 60.2409C11.2157 59.4286 12.944 59.0225 14.8625 59.0225C16.6254 59.0225 18.1982 59.3336 19.5809 59.9558C20.9635 60.578 22.1043 61.4767 23.003 62.652L19.1401 66.1C18.0167 64.6828 16.6945 63.9742 15.1736 63.9742C13.8946 63.9742 12.8663 64.389 12.0885 65.2186C11.3108 66.0309 10.9219 67.1284 10.9219 68.5111C10.9219 69.8937 11.3108 70.9999 12.0885 71.8295C12.8663 72.6418 13.8946 73.0479 15.1736 73.0479C16.6945 73.0479 18.0167 72.3393 19.1401 70.9221L23.003 74.3701C22.1043 75.5454 20.9635 76.4441 19.5809 77.0663C18.1982 77.6885 16.6254 77.9996 14.8625 77.9996Z" fill="white"/>
<path d="M36.9543 73.0222H35.2951V77.585H29.1768V59.4375H37.9136C39.5901 59.4375 41.0505 59.714 42.2949 60.2671C43.5393 60.8201 44.4986 61.6152 45.1726 62.6522C45.8467 63.6892 46.1837 64.899 46.1837 66.2817C46.1837 67.5779 45.8899 68.71 45.3022 69.6779C44.7146 70.6458 43.8677 71.4149 42.7616 71.9852L46.5726 77.585H40.0394L36.9543 73.0222ZM40.0135 66.2817C40.0135 65.6076 39.8061 65.0891 39.3913 64.7262C38.9765 64.346 38.3543 64.1558 37.5247 64.1558H35.2951V68.4076H37.5247C38.3543 68.4076 38.9765 68.2261 39.3913 67.8631C39.8061 67.4829 40.0135 66.9557 40.0135 66.2817Z" fill="white"/>
<path d="M63.4331 71.0001V77.585H57.3148V70.9223L50.4705 59.4375H56.9259L60.6332 65.7113L64.3664 59.4375H70.2773L63.4331 71.0001Z" fill="white"/>
<path d="M84.198 59.4375C85.8745 59.4375 87.3349 59.714 88.5794 60.2671C89.8238 60.8201 90.783 61.6152 91.457 62.6522C92.1311 63.6892 92.4681 64.899 92.4681 66.2817C92.4681 67.6644 92.1311 68.8742 91.457 69.9112C90.783 70.9482 89.8238 71.7433 88.5794 72.2963C87.3349 72.8494 85.8745 73.1259 84.198 73.1259H81.5796V77.585H75.4612V59.4375H84.198ZM83.8091 68.4076C84.6387 68.4076 85.2609 68.2261 85.6757 67.8631C86.0905 67.4829 86.2979 66.9557 86.2979 66.2817C86.2979 65.6076 86.0905 65.0891 85.6757 64.7262C85.2609 64.346 84.6387 64.1558 83.8091 64.1558H81.5796V68.4076H83.8091Z" fill="white"/>
<path d="M102.417 64.1818H97.1028V59.4375H113.85V64.1818H108.536V77.585H102.417V64.1818Z" fill="white"/>
<path d="M129.108 77.9996C127.155 77.9996 125.401 77.5935 123.845 76.7812C122.29 75.9688 121.071 74.8454 120.19 73.4109C119.309 71.9591 118.868 70.3258 118.868 68.5111C118.868 66.6963 119.309 65.0717 120.19 63.6371C121.071 62.1853 122.29 61.0533 123.845 60.2409C125.401 59.4286 127.155 59.0225 129.108 59.0225C131.061 59.0225 132.815 59.4286 134.371 60.2409C135.927 61.0533 137.145 62.1853 138.026 63.6371C138.908 65.0717 139.349 66.6963 139.349 68.5111C139.349 70.3258 138.908 71.9591 138.026 73.4109C137.145 74.8454 135.927 75.9688 134.371 76.7812C132.815 77.5935 131.061 77.9996 129.108 77.9996ZM129.108 73.0479C129.869 73.0479 130.551 72.8665 131.156 72.5035C131.778 72.1233 132.271 71.5961 132.634 70.9221C132.997 70.2308 133.178 69.4271 133.178 68.5111C133.178 67.595 132.997 66.8 132.634 66.1259C132.271 65.4346 131.778 64.9075 131.156 64.5445C130.551 64.1643 129.869 63.9742 129.108 63.9742C128.348 63.9742 127.656 64.1643 127.034 64.5445C126.429 64.9075 125.945 65.4346 125.582 66.1259C125.219 66.8 125.038 67.595 125.038 68.5111C125.038 69.4271 125.219 70.2308 125.582 70.9221C125.945 71.5961 126.429 72.1233 127.034 72.5035C127.656 72.8665 128.348 73.0479 129.108 73.0479Z" fill="white"/>
</svg>
